<svg xmlns="http://www.w3.org/2000/svg" xmlns:xlink="http://www.w3.org/1999/xlink" version="1.1" x="0px" y="0px" viewBox="0 0 100 125" style="enable-background:new 0 0 100 100;" xml:space="preserve"><style type="text/css">
	.st0{fill:none;}
</style><g><path class="st0" d="M51.5,50.7c-0.4-0.8-0.8-1.6-1.2-2.4c-0.3-0.6-0.6-1.2-1-1.7c-0.7-1.3-1.6-2.6-2.6-3.8   c-0.6-0.7-1.3-1.3-2.1-1.8c-0.7-0.4-1.4-0.7-2.1-1c-0.5-0.1-1.1-0.2-1.7-0.3c-0.5,0-1,0.1-1.5,0.1c-0.4,0.1-0.8,0.2-1.1,0.4   c-0.3,0.2-0.6,0.4-0.9,0.6c-0.3,0.4-0.7,0.8-0.9,1.2c-0.4,0.8-0.8,1.6-1.1,2.4c-0.3,1.2-0.5,2.5-0.6,3.8c0,2.1,0.2,4.3,0.6,6.4   c0.6,2.6,1.6,5,2.8,7.3c0.4,0.8,0.9,1.6,1.4,2.4c3-2.1,6-4.2,8.9-6.3c1.6-1.1,3.1-2.3,4.7-3.4c-0.2-0.4-0.3-0.7-0.5-1.1   C52.4,52.6,52,51.7,51.5,50.7z"/><path class="st0" d="M15.5,78.2C15.5,78.2,15.5,78.2,15.5,78.2c0.1-0.1,0.1-0.1,0-0.1C15.5,78.1,15.5,78.2,15.5,78.2z"/><path class="st0" d="M71.8,47.4c-1.5,1.3-3.1,2.5-4.7,3.7c-1.6,1.3-3.3,2.5-4.9,3.7c-0.6,0.5-1.2,0.9-1.8,1.4   c0.4,0.6,0.7,1.2,1.1,1.8c0.4,0.6,0.8,1.2,1.2,1.8c0.5,0.7,1.1,1.5,1.7,2.2c0.9,0.9,1.8,1.7,2.9,2.5c0.8,0.5,1.6,0.9,2.5,1.2   c0.5,0.1,1.1,0.2,1.7,0.3c0.4,0,0.8,0,1.3-0.1c0.3-0.1,0.6-0.2,0.9-0.4c0.3-0.2,0.6-0.4,0.9-0.6c0.4-0.4,0.7-0.8,1-1.2   c0.2-0.4,0.4-0.8,0.6-1.2c0.1-0.6,0.2-1.2,0.3-1.8c0-1.1-0.2-2.2-0.4-3.3c-0.7-2.6-1.7-5.1-2.9-7.5C72.6,48.9,72.2,48.2,71.8,47.4z   "/><path class="st0" d="M93.2,11.8c-0.2-0.6-0.4-1.1-0.6-1.7c-0.3-0.5-0.6-0.9-0.9-1.4c-0.4-0.4-0.9-0.8-1.4-1.1   C89.6,7.3,89,7,88.3,6.7c-1-0.3-2.1-0.4-3.2-0.5c-1.3,0-2.6,0.1-3.9,0.4c-1.4,0.4-2.7,0.9-3.9,1.5c-1.3,0.7-2.5,1.6-3.6,2.5   c-0.9,0.9-1.8,1.9-2.5,3c-0.7,1.2-1.3,2.5-1.8,3.8c-0.4,1.4-0.6,2.8-0.7,4.2c0,1.7,0.2,3.4,0.5,5.1c0.8,3.3,2.2,6.5,3.6,9.6   c0.4,0.9,0.8,1.8,1.2,2.7c0.1-0.1,0.2-0.1,0.2-0.2c0.7-0.6,1.4-1.2,2.1-1.8c0.8-0.7,1.5-1.4,2.3-2.1c0.1-0.1,0.2-0.2,0.2-0.2   c4-3.9,8.1-7.8,11.2-12.5c1.1-1.7,2-3.5,2.7-5.4c0.3-0.9,0.5-1.9,0.5-2.9C93.4,13.2,93.3,12.5,93.2,11.8z"/></g><g><path d="M6.3,19.5C6.3,19.5,6.3,19.4,6.3,19.5c0.1-0.1,0.1-0.1,0.1-0.1C6.3,19.4,6.3,19.5,6.3,19.5z"/><path d="M94.1,89.3c0.1-0.1,0.1-0.2,0.2-0.3c0.1-0.1,0.1-0.2,0.1-0.3c0.1-0.1,0.1-0.3,0.1-0.4c0.1-0.2,0.2-0.4,0.2-0.6   c0.2-0.4,0.3-0.8,0.5-1.2c0.3-0.8,0.6-1.7,0.9-2.5c0.3-1,0.6-2,0.8-3c0.2-0.9,0.3-1.7,0.5-2.6c0-0.2,0.1-0.3,0.1-0.5   c0-0.2,0-0.3,0-0.5c0.1-0.4,0.2-0.8,0.2-1.3c0.1-0.6,0.2-1.1,0.2-1.7c0-0.3,0-0.6-0.1-0.9c0-0.1,0-0.2-0.1-0.3   c-0.1-0.3-0.2-0.5-0.4-0.8c0,0,0,0,0,0c-0.3-0.3-0.7-0.3-1-0.4c-0.2,0-0.4,0-0.5,0c-0.1,0-0.2,0-0.3,0.1c-0.3,0.1-0.5,0.2-0.8,0.2   c-1,0.3-2,0.7-3,1.2c-0.8,0.3-1.5,0.6-2.3,0.9c-0.3-0.6-0.7-1.1-1-1.7c-1-1.6-2.1-3.2-3.3-4.7c-2.2-2.8-4.8-5.2-7.5-7.5   c-1.3-1.1-2.6-2.1-3.9-3.1c0.4-0.5,0.7-1,1.1-1.5c0.5-0.8,0.8-1.6,1.2-2.4c0.3-0.8,0.6-1.6,0.8-2.4c0.4-1.6,0.5-3.3,0.4-5   c-0.1-0.9-0.2-1.7-0.3-2.6c-0.2-0.9-0.5-1.9-0.8-2.8c-0.3-0.7-0.6-1.4-1-2.1c-0.5-0.8-1-1.6-1.6-2.4c-0.3-0.4-0.6-0.7-0.9-1.1   c-0.9-1-1.9-1.8-2.9-2.6c-1.4-1-2.9-1.8-4.4-2.5c-1.6-0.8-3.3-1.4-5-2c-1.6-0.5-3.2-1.1-4.9-1.5c-1.3-0.3-2.5-0.6-3.8-0.9   c0.2-0.8,0.3-1.5,0.5-2.3c0.3-1.7,0.2-3.4-0.1-5.1c-0.3-1.7-0.9-3.4-1.6-5c-0.7-1.6-1.8-3.2-2.9-4.6c-1.1-1.4-2.4-2.6-3.9-3.7   c-1.4-1-3-1.8-4.7-2.4c-0.7-0.3-1.5-0.4-2.3-0.6c-0.9-0.2-1.9-0.3-2.9-0.4c-1.7-0.2-3.5-0.1-5.2,0.1C25,2.2,21.7,3.3,18.8,5   c-2.8,1.6-5.3,3.8-7.3,6.3c-1,1.2-2,2.5-2.9,3.9C7.7,16.5,7,18,6.3,19.4c0,0,0,0.1,0,0.1c0,0,0,0,0,0c0,0,0,0,0,0c0,0,0,0,0,0   c0,0,0,0,0,0c-0.6,1.2-1.1,2.5-1.5,3.8c-0.5,1.3-0.9,2.7-1.3,4C3,28.7,2.6,30,2.3,31.4c-0.3,1.4-0.4,2.7-0.5,4.1   c-0.1,1.4,0,2.7,0.1,4.1C2,40.9,2,42.1,2.5,43.3c0,0.1,0.1,0.2,0.1,0.3c0.1,0,0.1,0.1,0.2,0.1c0.1,0.1,0.3,0.1,0.4,0.1   c0,0,0.1,0,0.1,0c0.1,0,0.1-0.1,0.2-0.1c0,0,0.1-0.1,0.1-0.1c0.1-0.1,0.2-0.2,0.2-0.4c0-0.1,0.1-0.2,0.1-0.3c0,0,0,0,0,0   c0,0,0,0,0-0.1c-0.2-0.6-0.3-1.3-0.4-1.9c-0.1-1.1-0.2-2.2-0.1-3.2c0-1.2,0.2-2.4,0.4-3.6c0.1-0.8,0.3-1.6,0.5-2.4   c0.2-0.9,0.5-1.8,0.9-2.7c0.6-1.7,1.3-3.4,2-5.1c0.7-1.5,1.4-3,2.3-4.4c0.9-1.5,1.9-2.8,3-4.2c0.9-1,1.8-2,2.8-2.9   c1-1,2.1-1.9,3.2-2.7c1.6-1.1,3.3-2,5.2-2.7c1.9-0.7,3.9-1.1,5.9-1.3c1.8-0.1,3.6-0.1,5.4,0.2c1.3,0.2,2.6,0.6,3.9,1.1   c1.2,0.6,2.3,1.3,3.3,2.1c1.1,0.9,2,2,2.9,3.2c0.9,1.3,1.6,2.8,2.2,4.3c0.4,1.2,0.7,2.5,0.9,3.8c0.1,1.1,0,2.1-0.1,3.1   c-0.1,0.4-0.2,0.9-0.3,1.3c-0.9-0.1-1.7-0.3-2.6-0.4c-0.5-0.1-1-0.1-1.5-0.2c-0.9-0.1-1.7-0.2-2.6-0.3c-0.6-0.1-1.2-0.1-1.8-0.2   c-0.4,0-0.9,0-1.3-0.1c-0.9,0-1.8-0.1-2.7,0c-1.8,0-3.6,0.2-5.4,0.4c-1.7,0.2-3.3,0.6-4.9,1.1c-0.9,0.3-1.7,0.6-2.5,1   c-0.8,0.4-1.6,0.8-2.3,1.3c-0.4,0.3-0.7,0.5-1.1,0.9c-0.3,0.3-0.6,0.7-0.8,1.1c-0.5,0.8-0.7,1.7-0.6,2.6c0,0.4,0.1,0.8,0.2,1.2   c0.1,0.4,0.3,0.8,0.5,1.1c0.4,0.7,1,1.4,1.6,2c0.7,0.6,1.4,1.1,2.1,1.6c0.8,0.5,1.5,0.9,2.3,1.3c1.7,0.9,3.5,1.6,5.2,2.3   c0.2,0.1,0.4,0.2,0.6,0.3c-0.3,0.2-0.6,0.5-0.9,0.8c-0.6,0.6-1.2,1.3-1.8,1.9c-0.5,0.7-1,1.4-1.4,2.1c-0.4,0.8-0.7,1.6-0.9,2.4   c-0.2,0.9-0.4,1.8-0.4,2.7c-0.1,3.5,1.5,6.8,3.7,9.3c1.1,1.3,2.5,2.4,3.9,3.4c1.4,1,3,1.8,4.7,2.3c1.6,0.6,3.3,0.8,5,1   c1.6,0.2,3.3,0.2,4.9,0.2c3.4-0.1,6.9-0.6,10.2-1.4c1.6-0.4,3.2-0.9,4.8-1.4c1.7-0.6,3.4-1.3,4.9-2.1c0.7-0.4,1.4-0.8,2.1-1.3   c0.3-0.2,0.7-0.5,1-0.7c0.8,0.6,1.7,1.3,2.5,1.9c1,0.8,1.9,1.7,2.9,2.5c1,1,2.1,1.9,3,2.9c2,2,3.8,4.1,5.4,6.4c0.3,0.5,0.7,1,1,1.5   c-0.3,0.1-0.6,0.2-0.8,0.4c-0.4,0.1-0.9,0.3-1.3,0.5c-0.5,0.2-1,0.5-1.5,0.7c-0.2,0.1-0.4,0.2-0.6,0.2c-0.3,0.1-0.6,0.3-0.9,0.4   c-0.2,0.1-0.3,0.2-0.5,0.3c0,0-0.1,0-0.1,0c-0.2,0.1-0.3,0.2-0.5,0.3c-0.3,0.2-0.5,0.3-0.7,0.5c-0.1,0.1-0.2,0.1-0.2,0.2   c-0.1,0.1-0.1,0.2-0.2,0.3c-0.1,0.1-0.1,0.2-0.1,0.3c0,0,0,0.1,0,0.1c0,0.2,0,0.4,0,0.5c0.1,0.4,0.3,0.6,0.6,0.9   c0.2,0.2,0.5,0.4,0.8,0.6c0.5,0.3,0.9,0.5,1.4,0.8c0.3,0.2,0.6,0.3,0.9,0.5c0.2,0.2,0.4,0.3,0.6,0.5c0.3,0.3,0.7,0.5,1,0.7   c0.4,0.3,0.9,0.5,1.3,0.8c0.4,0.2,0.7,0.4,1.1,0.6c0.4,0.2,0.7,0.4,1.1,0.6c0.4,0.2,0.8,0.4,1.2,0.6c0.7,0.4,1.5,0.7,2.3,1.1   c0.4,0.2,0.7,0.4,1.1,0.5c0.3,0.2,0.7,0.3,1,0.5c0.2,0.1,0.3,0.1,0.5,0.2c0.2,0.1,0.4,0.2,0.7,0.2c0.1,0,0.3,0,0.4,0   c0.2,0,0.3-0.1,0.5-0.2C93.9,89.9,94,89.6,94.1,89.3z M39.4,35.7c-1,0.7-2,1.3-2.9,1.9c-0.6,0.4-1.2,0.8-1.9,1.2   c-0.5,0.4-1.1,0.7-1.6,1.1c0,0,0,0,0,0c-0.5-0.2-0.9-0.4-1.4-0.5c-0.8-0.3-1.7-0.6-2.5-0.9c-1.1-0.4-2.1-0.9-3.2-1.3   c-1.4-0.7-2.8-1.4-4.1-2.4c-0.2-0.2-0.4-0.4-0.6-0.5c-0.2-0.2-0.3-0.4-0.5-0.6c-0.2-0.3-0.3-0.5-0.4-0.8c0-0.1-0.1-0.3-0.1-0.4   c0-0.2,0-0.3,0-0.5c0-0.1,0-0.1,0.1-0.2c0.1-0.1,0.2-0.3,0.3-0.4c0.1-0.1,0.2-0.2,0.3-0.3c0.3-0.2,0.6-0.3,0.9-0.5   c1.4-0.5,2.8-0.9,4.2-1.2c1.6-0.4,3.2-0.6,4.8-0.7c2.3-0.2,4.6-0.2,6.8-0.1c1,0,2,0.1,3.1,0.2c1.1,0.1,2.3,0.2,3.4,0.3   c0.6,0.1,1.1,0.1,1.7,0.2c-0.4,0.7-0.9,1.4-1.4,2C42.9,33,41.1,34.4,39.4,35.7z M63.8,60.3c-1.3,0.6-2.6,1.1-3.9,1.6   c-3.7,1.3-7.7,2.2-11.6,2.5c-1.3,0.1-2.7,0.2-4,0.1c-1.3,0-2.7-0.1-4-0.4c-1.3-0.2-2.6-0.6-3.8-1.1c-1.4-0.7-2.7-1.5-4-2.5   c-1-0.8-1.8-1.7-2.5-2.7c-0.6-0.9-1.1-1.8-1.4-2.7c-0.2-0.7-0.4-1.3-0.5-2c0-0.7,0-1.4,0.1-2.1c0.1-0.7,0.4-1.4,0.6-2   c0.4-0.7,0.8-1.4,1.3-2.1c1-1.2,2.2-2.2,3.5-3.1c0.1-0.1,0.2-0.2,0.4-0.2c0.7,0.3,1.3,0.6,2,0.8c2.1,0.9,4.3,1.7,6.4,2.6   c2.5,1,4.9,2.1,7.4,3.1c2.6,1.2,5.1,2.3,7.7,3.5c0,0,0,0,0,0c0,0,0,0,0,0c0,0,0,0,0,0c0,0,0,0,0,0c0,0,0,0,0,0c0,0,0,0,0.1,0   c0,0,0,0-0.1,0c0.6,0.3,1.2,0.6,1.8,0.9c0.7,0.3,1.4,0.7,2,1.1c1.3,0.7,2.7,1.5,3.9,2.3c0.4,0.3,0.8,0.5,1.2,0.8   C65.6,59.4,64.7,59.9,63.8,60.3z M68.8,54.4c-1.5-0.9-3-1.7-4.6-2.4c-0.9-0.4-1.7-0.8-2.6-1.2c-0.4-0.2-0.8-0.3-1.1-0.5   s-0.8-0.3-1.1-0.5c-1-0.4-2-0.8-3.1-1.2c-2.1-0.8-4.2-1.7-6.3-2.4c-4.2-1.5-8.5-3-12.7-4.5c0.1,0,0.1-0.1,0.2-0.1   c0.6-0.4,1.3-0.8,1.9-1.2c0.7-0.5,1.4-0.9,2.1-1.4c0.8-0.6,1.6-1.2,2.4-1.8c2.4-1.9,4.5-4.3,6-7c2,0.4,4.1,0.8,6.1,1.4   c1.2,0.3,2.5,0.7,3.7,1.1c1.2,0.4,2.3,0.8,3.4,1.3c1.8,0.9,3.7,1.9,5.3,3.1c0.9,0.8,1.8,1.7,2.5,2.8c0.6,0.9,1.1,1.8,1.5,2.8   c0.4,1.2,0.6,2.4,0.8,3.6c0.1,1.2,0,2.4-0.1,3.5c-0.2,1.1-0.5,2.2-1,3.3c-0.4,0.9-1,1.7-1.6,2.5C69.9,55,69.3,54.7,68.8,54.4z"/></g></svg>