<svg xmlns="http://www.w3.org/2000/svg" xmlns:xlink="http://www.w3.org/1999/xlink" version="1.1" x="0px" y="0px" viewBox="0 0 500 625" enable-background="new 0 0 500 500" xml:space="preserve"><g><g><g><g><path d="M18.6,66.7c29.3,0,58.5,0,87.8,0c4.2,0,8.4,0,12.6,0c-3.2-2.4-6.4-4.9-9.6-7.3c6.7,24.8,13.4,49.6,20.2,74.5      c10.8,39.8,21.5,79.5,32.3,119.3c2.5,9.1,4.9,18.2,7.4,27.3c1.1,4.2,5.3,7.3,9.6,7.3c28.1,0,56.3,0,84.4,0      c44.4,0,88.9,0,133.3,0c10.2,0,20.5,0,30.7,0c4.6,0,8.3-3.1,9.6-7.3c6-18.2,12-36.4,18-54.7c9.7-29.2,19.3-58.5,29-87.7      c2.2-6.7,4.4-13.4,6.6-20.1c4-12.3-15.3-17.5-19.3-5.3c-6,18.2-12,36.4-18,54.7c-9.7,29.2-19.3,58.5-29,87.7      c-2.2,6.7-4.4,13.4-6.6,20.1c3.2-2.4,6.4-4.9,9.6-7.3c-28.1,0-56.3,0-84.4,0c-44.4,0-88.9,0-133.3,0c-10.2,0-20.5,0-30.7,0      c3.2,2.4,6.4,4.9,9.6,7.3c-6.7-24.8-13.4-49.6-20.2-74.5c-10.8-39.8-21.5-79.5-32.3-119.3c-2.5-9.1-4.9-18.2-7.4-27.3      c-1.1-4.2-5.3-7.3-9.6-7.3c-29.3,0-58.5,0-87.8,0c-4.2,0-8.4,0-12.6,0C5.8,46.7,5.7,66.7,18.6,66.7L18.6,66.7z"/></g></g><g><g><path d="M170.6,272.4c-11.8,19.5-23.5,39.1-35.3,58.6c-3.9,6.5,1.1,15,8.6,15c33.3,0,66.7,0,100,0c52.7,0,105.4,0,158.1,0      c12.1,0,24.2,0,36.3,0c12.9,0,12.9-20,0-20c-33.3,0-66.7,0-100,0c-52.7,0-105.4,0-158.1,0c-12.1,0-24.2,0-36.3,0      c2.9,5,5.8,10,8.6,15c11.8-19.5,23.5-39.1,35.3-58.6C194.5,271.4,177.2,261.4,170.6,272.4L170.6,272.4z"/></g></g></g><g><g><path d="M212.6,405.2c-0.2,11.4-7,21.8-17.8,25.9c-11.2,4.3-24.2,0.7-31.7-8.7c-15.5-19.5,2-49,26.6-44.6     C203,380.3,212.4,391.9,212.6,405.2c0.2,12.9,20.2,12.9,20,0c-0.4-20.3-12.8-38-31.9-45c-18.4-6.7-40.3-0.6-52.5,14.6     c-12.4,15.4-14.6,37.2-4.5,54.5c10.3,17.6,30.8,26.3,50.6,22.7c22.3-4.1,37.9-24.6,38.3-46.8     C232.9,392.4,212.9,392.4,212.6,405.2z"/></g></g><g><g><path d="M421.3,405.2c-0.2,11.4-7,21.8-17.8,25.9c-11.2,4.3-24.2,0.7-31.7-8.7c-15.5-19.5,2-49,26.6-44.6     C411.7,380.3,421.1,391.9,421.3,405.2c0.2,12.9,20.2,12.9,20,0c-0.4-20.3-12.8-38-31.9-45c-18.4-6.7-40.3-0.6-52.5,14.6     c-12.4,15.4-14.6,37.2-4.5,54.5c10.3,17.6,30.8,26.3,50.6,22.7c22.3-4.1,37.9-24.6,38.3-46.8     C441.6,392.4,421.6,392.4,421.3,405.2z"/></g></g></g></svg>